<svg width="108" height="66" viewBox="0 0 108 66" fill="none" xmlns="http://www.w3.org/2000/svg">
<path d="M26.452 65.552C21.484 65.552 17.0373 64.2333 13.112 61.596C9.248 58.9587 6.212 55.1867 4.004 50.28C1.85733 45.312 0.784 39.4853 0.784 32.8C0.784 26.1147 1.85733 20.3187 4.004 15.412C6.212 10.444 9.248 6.64133 13.112 4.004C17.0373 1.36666 21.484 0.0479972 26.452 0.0479972C31.42 0.0479972 35.836 1.36666 39.7 4.004C43.6253 6.64133 46.692 10.444 48.9 15.412C51.108 20.3187 52.212 26.1147 52.212 32.8C52.212 39.4853 51.108 45.312 48.9 50.28C46.692 55.1867 43.6253 58.9587 39.7 61.596C35.836 64.2333 31.42 65.552 26.452 65.552ZM26.452 59.48C30.1933 59.48 33.4747 58.4373 36.296 56.352C39.1787 54.2667 41.4173 51.2307 43.012 47.244C44.6067 43.2573 45.404 38.4427 45.404 32.8C45.404 27.1573 44.6067 22.3427 43.012 18.356C41.4173 14.3693 39.1787 11.3333 36.296 9.248C33.4747 7.16266 30.1933 6.12 26.452 6.12C22.7107 6.12 19.3987 7.16266 16.516 9.248C13.6947 11.3333 11.4867 14.3693 9.892 18.356C8.29733 22.3427 7.5 27.1573 7.5 32.8C7.5 38.4427 8.29733 43.2573 9.892 47.244C11.4867 51.2307 13.6947 54.2667 16.516 56.352C19.3987 58.4373 22.7107 59.48 26.452 59.48ZM107.334 59.112V65H62.1624V60.308L88.9344 34.088C92.3077 30.776 94.577 27.924 95.7424 25.532C96.969 23.0787 97.5824 20.6253 97.5824 18.172C97.5824 14.3693 96.2637 11.4253 93.6264 9.34C91.0504 7.19333 87.3397 6.12 82.4944 6.12C74.9504 6.12 69.093 8.512 64.9224 13.296L60.2304 9.248C62.745 6.304 65.9344 4.03466 69.7984 2.44C73.7237 0.845331 78.1397 0.0479972 83.0464 0.0479972C89.609 0.0479972 94.7917 1.612 98.5944 4.74C102.458 7.80666 104.39 12.0387 104.39 17.436C104.39 20.748 103.654 23.9373 102.182 27.004C100.71 30.0707 97.9197 33.5973 93.8104 37.584L71.9144 59.112H107.334Z" fill="#4B4B4B"/>
</svg>
