<svg width="110" height="66" viewBox="0 0 110 66" fill="none" xmlns="http://www.w3.org/2000/svg">
<path d="M26.452 65.552C21.484 65.552 17.0373 64.2333 13.112 61.596C9.248 58.9587 6.212 55.1867 4.004 50.28C1.85733 45.312 0.784 39.4853 0.784 32.8C0.784 26.1147 1.85733 20.3187 4.004 15.412C6.212 10.444 9.248 6.64133 13.112 4.004C17.0373 1.36666 21.484 0.0479972 26.452 0.0479972C31.42 0.0479972 35.836 1.36666 39.7 4.004C43.6253 6.64133 46.692 10.444 48.9 15.412C51.108 20.3187 52.212 26.1147 52.212 32.8C52.212 39.4853 51.108 45.312 48.9 50.28C46.692 55.1867 43.6253 58.9587 39.7 61.596C35.836 64.2333 31.42 65.552 26.452 65.552ZM26.452 59.48C30.1933 59.48 33.4747 58.4373 36.296 56.352C39.1787 54.2667 41.4173 51.2307 43.012 47.244C44.6067 43.2573 45.404 38.4427 45.404 32.8C45.404 27.1573 44.6067 22.3427 43.012 18.356C41.4173 14.3693 39.1787 11.3333 36.296 9.248C33.4747 7.16266 30.1933 6.12 26.452 6.12C22.7107 6.12 19.3987 7.16266 16.516 9.248C13.6947 11.3333 11.4867 14.3693 9.892 18.356C8.29733 22.3427 7.5 27.1573 7.5 32.8C7.5 38.4427 8.29733 43.2573 9.892 47.244C11.4867 51.2307 13.6947 54.2667 16.516 56.352C19.3987 58.4373 22.7107 59.48 26.452 59.48ZM87.4581 26.452C91.6901 26.452 95.4314 27.2493 98.6821 28.844C101.994 30.4387 104.57 32.708 106.41 35.652C108.25 38.5347 109.17 41.908 109.17 45.772C109.17 49.6973 108.219 53.1627 106.318 56.168C104.417 59.1733 101.779 61.504 98.4061 63.16C95.0941 64.7547 91.3527 65.552 87.1821 65.552C78.6567 65.552 72.1247 62.7613 67.5861 57.18C63.0474 51.5373 60.7781 43.5947 60.7781 33.352C60.7781 26.176 62.0047 20.104 64.4581 15.136C66.9114 10.168 70.3461 6.42666 74.7621 3.912C79.1781 1.336 84.3301 0.0479972 90.2181 0.0479972C96.5967 0.0479972 101.687 1.21333 105.49 3.544L102.822 8.88C99.7554 6.856 95.5847 5.844 90.3101 5.844C83.1954 5.844 77.6141 8.11333 73.5661 12.652C69.5181 17.1293 67.4941 23.6613 67.4941 32.248C67.4941 33.7813 67.5861 35.5293 67.7701 37.492C69.3647 33.996 71.9101 31.2973 75.4061 29.396C78.9021 27.4333 82.9194 26.452 87.4581 26.452ZM86.9061 59.94C91.5674 59.94 95.3394 58.6827 98.2221 56.168C101.166 53.592 102.638 50.188 102.638 45.956C102.638 41.724 101.166 38.3507 98.2221 35.836C95.3394 33.3213 91.4141 32.064 86.4461 32.064C83.1954 32.064 80.3127 32.6773 77.7981 33.904C75.3447 35.1307 73.4127 36.8173 72.0021 38.964C70.5914 41.1107 69.8861 43.5027 69.8861 46.14C69.8861 48.5933 70.5301 50.8627 71.8181 52.948C73.1674 55.0333 75.1301 56.72 77.7061 58.008C80.2821 59.296 83.3487 59.94 86.9061 59.94Z" fill="#4B4B4B"/>
</svg>
