<svg width="28" height="32" viewBox="0 0 28 32" fill="none" xmlns="http://www.w3.org/2000/svg">
<path fill-rule="evenodd" clip-rule="evenodd" d="M25.9209 9.66111C25.9209 9.66111 27.3609 10.9494 27.4671 12.8593C27.5733 14.7691 26.2143 16.578 26.2143 16.578C26.2143 16.578 26.583 18.7469 25.7799 20.2512C24.9768 21.7555 23.0719 22.4087 23.0719 22.4087C23.0719 22.4087 22.7489 23.5453 22.0018 24.4755L23.1462 26.3301L22.1292 26.6444L24.6082 31.7008L17.4495 26.0333L17.7239 25.966C17.4283 25.9507 17.2465 25.9256 17.2465 25.9256C17.2465 25.9256 15.8438 27.372 13.6745 27.3101C11.5051 27.2483 10.4964 25.936 10.4964 25.936C10.4964 25.936 8.3238 26.2393 6.81305 25.3198C5.30231 24.4003 4.84244 22.6926 4.84244 22.6926C4.84244 22.6926 3.08415 22.243 2.28579 21.0102C1.48744 19.7774 1.83597 17.8423 1.83597 17.8423C1.83597 17.8423 0.289893 16.562 0.198803 14.6492C0.107713 12.7364 1.21421 11.5823 1.21421 11.5823C1.21421 11.5823 0.657197 9.65963 1.29483 8.11118C1.93247 6.56272 3.62638 5.96629 3.62638 5.96629L6.19583 9.29828L6.2461 9.26734C5.88299 9.91002 5.59427 10.6085 5.39436 11.3546C4.11841 16.1165 6.94434 21.0112 11.7063 22.2871C12.8843 22.6028 14.0705 22.6674 15.208 22.5137L14.1301 21.5083L15.3429 21.2111L11.1451 17.6175L12.2032 17.2343L8.11685 12.1097L15.4649 7.51004L18.928 14.669L17.9109 14.9832L20.4691 19.8354C21.4738 18.7866 22.2363 17.4772 22.6388 15.9752C23.9147 11.2133 21.0888 6.31864 16.3269 5.04268C15.412 4.79754 14.4922 4.70381 13.5941 4.74612L13.6935 4.68498L11.9199 0.678403C11.9199 0.678403 13.2437 -0.125017 15.1687 0.0416625C17.0937 0.208342 17.8971 1.53201 17.8971 1.53201C17.8971 1.53201 19.9838 1.32476 21.3076 2.16341C22.6314 3.00206 23.1923 4.88662 23.1923 4.88662C23.1923 4.88662 24.7026 5.16755 25.5671 6.5791C26.4315 7.99065 25.9209 9.66111 25.9209 9.66111Z" fill="#1E1E1E"/>
</svg>
