<svg width="445" height="347" viewBox="0 0 445 347" fill="none" xmlns="http://www.w3.org/2000/svg">
<path d="M23.2 316.6V339H18.048V320.824H7.936V339H2.784V316.6H23.2ZM39.2487 316.6C41.2327 316.6 42.9501 316.931 44.4007 317.592C45.8727 318.253 47.0034 319.192 47.7927 320.408C48.5821 321.624 48.9767 323.064 48.9767 324.728C48.9767 326.371 48.5821 327.811 47.7927 329.048C47.0034 330.264 45.8727 331.203 44.4007 331.864C42.9501 332.504 41.2327 332.824 39.2487 332.824H34.7367V339H29.5527V316.6H39.2487ZM38.9607 328.6C40.5181 328.6 41.7021 328.269 42.5127 327.608C43.3234 326.925 43.7288 325.965 43.7288 324.728C43.7288 323.469 43.3234 322.509 42.5127 321.848C41.7021 321.165 40.5181 320.824 38.9607 320.824H34.7367V328.6H38.9607ZM64.197 339.384C61.8717 339.384 59.7703 338.883 57.893 337.88C56.037 336.877 54.5757 335.501 53.509 333.752C52.4637 331.981 51.941 329.997 51.941 327.8C51.941 325.603 52.4637 323.629 53.509 321.88C54.5757 320.109 56.037 318.723 57.893 317.72C59.7703 316.717 61.8717 316.216 64.197 316.216C66.5223 316.216 68.613 316.717 70.469 317.72C72.325 318.723 73.7863 320.109 74.853 321.88C75.9197 323.629 76.453 325.603 76.453 327.8C76.453 329.997 75.9197 331.981 74.853 333.752C73.7863 335.501 72.325 336.877 70.469 337.88C68.613 338.883 66.5223 339.384 64.197 339.384ZM64.197 334.968C65.5197 334.968 66.7143 334.669 67.781 334.072C68.8477 333.453 69.6797 332.6 70.277 331.512C70.8957 330.424 71.205 329.187 71.205 327.8C71.205 326.413 70.8957 325.176 70.277 324.088C69.6797 323 68.8477 322.157 67.781 321.56C66.7143 320.941 65.5197 320.632 64.197 320.632C62.8743 320.632 61.6797 320.941 60.613 321.56C59.5463 322.157 58.7037 323 58.085 324.088C57.4877 325.176 57.189 326.413 57.189 327.8C57.189 329.187 57.4877 330.424 58.085 331.512C58.7037 332.6 59.5463 333.453 60.613 334.072C61.6797 334.669 62.8743 334.968 64.197 334.968ZM101.631 339L101.599 325.592L95.0065 336.632H92.7025L86.1105 325.848V339H81.2465V316.6H85.5345L93.9185 330.52L102.175 316.6H106.463L106.495 339H101.631ZM120.027 316.216C122.246 316.216 124.23 316.717 125.979 317.72C127.75 318.701 129.136 320.077 130.139 321.848C131.142 323.597 131.643 325.581 131.643 327.8C131.643 330.019 131.142 332.013 130.139 333.784C129.136 335.533 127.75 336.909 125.979 337.912C124.23 338.893 122.246 339.384 120.027 339.384C118.043 339.384 116.251 339.043 114.651 338.36C113.072 337.677 111.75 336.685 110.683 335.384L113.979 332.312C115.558 334.083 117.488 334.968 119.771 334.968C121.414 334.968 122.8 334.488 123.931 333.528C125.083 332.568 125.83 331.277 126.171 329.656H117.083V325.688H126.107C125.744 324.152 124.998 322.925 123.867 322.008C122.736 321.091 121.371 320.632 119.771 320.632C117.488 320.632 115.558 321.517 113.979 323.288L110.683 320.216C111.75 318.915 113.072 317.923 114.651 317.24C116.251 316.557 118.043 316.216 120.027 316.216ZM155.846 316.6V339H150.726V320.824H143.046L142.886 325.496C142.779 328.675 142.523 331.256 142.118 333.24C141.712 335.203 141.03 336.717 140.07 337.784C139.131 338.829 137.808 339.352 136.102 339.352C135.398 339.352 134.544 339.235 133.542 339L133.862 334.616C134.139 334.701 134.448 334.744 134.79 334.744C136.027 334.744 136.891 334.019 137.382 332.568C137.872 331.096 138.182 328.803 138.31 325.688L138.63 316.6H155.846ZM179.584 334.84V339H162.24V316.6H179.168V320.76H167.392V325.624H177.792V329.656H167.392V334.84H179.584ZM193.244 329.976H189.66V339H184.508V316.6H189.66V325.656H193.372L199.26 316.6H204.732L197.404 327.416L204.956 339H199.068L193.244 329.976ZM225.054 320.824H217.886V339H212.766V320.824H205.63V316.6H225.054V320.824ZM238.805 316.6C240.789 316.6 242.506 316.931 243.957 317.592C245.429 318.253 246.56 319.192 247.349 320.408C248.138 321.624 248.533 323.064 248.533 324.728C248.533 326.371 248.138 327.811 247.349 329.048C246.56 330.264 245.429 331.203 243.957 331.864C242.506 332.504 240.789 332.824 238.805 332.824H234.293V339H229.109V316.6H238.805ZM238.517 328.6C240.074 328.6 241.258 328.269 242.069 327.608C242.88 326.925 243.285 325.965 243.285 324.728C243.285 323.469 242.88 322.509 242.069 321.848C241.258 321.165 240.074 320.824 238.517 320.824H234.293V328.6H238.517ZM263.753 339.384C261.428 339.384 259.327 338.883 257.449 337.88C255.593 336.877 254.132 335.501 253.065 333.752C252.02 331.981 251.497 329.997 251.497 327.8C251.497 325.603 252.02 323.629 253.065 321.88C254.132 320.109 255.593 318.723 257.449 317.72C259.327 316.717 261.428 316.216 263.753 316.216C266.079 316.216 268.169 316.717 270.025 317.72C271.881 318.723 273.343 320.109 274.409 321.88C275.476 323.629 276.009 325.603 276.009 327.8C276.009 329.997 275.476 331.981 274.409 333.752C273.343 335.501 271.881 336.877 270.025 337.88C268.169 338.883 266.079 339.384 263.753 339.384ZM263.753 334.968C265.076 334.968 266.271 334.669 267.337 334.072C268.404 333.453 269.236 332.6 269.833 331.512C270.452 330.424 270.761 329.187 270.761 327.8C270.761 326.413 270.452 325.176 269.833 324.088C269.236 323 268.404 322.157 267.337 321.56C266.271 320.941 265.076 320.632 263.753 320.632C262.431 320.632 261.236 320.941 260.169 321.56C259.103 322.157 258.26 323 257.641 324.088C257.044 325.176 256.745 326.413 256.745 327.8C256.745 329.187 257.044 330.424 257.641 331.512C258.26 332.6 259.103 333.453 260.169 334.072C261.236 334.669 262.431 334.968 263.753 334.968ZM301.187 339L301.155 325.592L294.563 336.632H292.259L285.667 325.848V339H280.803V316.6H285.091L293.475 330.52L301.731 316.6H306.019L306.051 339H301.187ZM323.103 339.384C320.778 339.384 318.677 338.883 316.799 337.88C314.943 336.877 313.482 335.501 312.415 333.752C311.37 331.981 310.847 329.997 310.847 327.8C310.847 325.603 311.37 323.629 312.415 321.88C313.482 320.109 314.943 318.723 316.799 317.72C318.677 316.717 320.778 316.216 323.103 316.216C325.429 316.216 327.519 316.717 329.375 317.72C331.231 318.723 332.693 320.109 333.759 321.88C334.826 323.629 335.359 325.603 335.359 327.8C335.359 329.997 334.826 331.981 333.759 333.752C332.693 335.501 331.231 336.877 329.375 337.88C327.519 338.883 325.429 339.384 323.103 339.384ZM323.103 334.968C324.426 334.968 325.621 334.669 326.687 334.072C327.754 333.453 328.586 332.6 329.183 331.512C329.802 330.424 330.111 329.187 330.111 327.8C330.111 326.413 329.802 325.176 329.183 324.088C328.586 323 327.754 322.157 326.687 321.56C325.621 320.941 324.426 320.632 323.103 320.632C321.781 320.632 320.586 320.941 319.519 321.56C318.453 322.157 317.61 323 316.991 324.088C316.394 325.176 316.095 326.413 316.095 327.8C316.095 329.187 316.394 330.424 316.991 331.512C317.61 332.6 318.453 333.453 319.519 334.072C320.586 334.669 321.781 334.968 323.103 334.968ZM360.697 316.6V339H355.513V329.816H345.337V339H340.153V316.6H345.337V325.432H355.513V316.6H360.697ZM384.229 320.824H377.061V339H371.941V320.824H364.805V316.6H384.229V320.824ZM402.327 334.2H391.927L389.943 339H384.631L394.615 316.6H399.735L409.751 339H404.311L402.327 334.2ZM400.695 330.264L397.143 321.688L393.591 330.264H400.695ZM432.685 329.976H429.421V339H424.333V329.976H421.005L415.981 339H409.997L416.717 327.288L410.413 316.6H415.885L420.909 325.656H424.333V316.6H429.421V325.656H432.749L437.805 316.6H443.277L437.005 327.288L443.693 339H437.709L432.685 329.976Z" fill="black"/>
<path fill-rule="evenodd" clip-rule="evenodd" d="M340.65 86.0945C335.103 69.2048 319.076 61.1031 319.076 61.1031C319.076 61.1031 319.642 44.8787 308.486 34.2862C297.33 23.6937 283.096 24.8047 283.096 24.8047C283.096 24.8047 273.527 9.2358 259.626 4.89134C245.725 0.546889 227.49 7.42684 227.49 7.42684C227.49 7.42684 217.094 -2.52354 199.412 0.610662C181.729 3.74487 171.779 14.1415 171.779 14.1415L197.338 45.8433L196.593 46.6313C204.553 44.0912 213.036 42.7202 221.839 42.7202C267.657 42.7202 304.8 79.8632 304.8 125.681C304.8 171.5 267.657 208.643 221.839 208.643C176.021 208.643 138.878 171.5 138.878 125.681C138.878 118.503 139.789 111.538 141.503 104.895L141.126 105.293L110.045 81.5621C110.045 81.5621 96.2729 90.991 94.2734 106.426C92.2739 121.86 101.899 137.78 101.899 137.78C101.899 137.78 94.742 150.803 100.161 167.755C105.58 184.708 122.539 192.483 122.539 192.483C122.539 192.483 124.065 210.693 134.197 219.84C144.33 228.986 161.196 228.793 161.196 228.793C161.196 228.793 169.432 243.017 185.206 247.638C200.98 252.258 219.755 244.31 219.755 244.31C219.755 244.31 231.967 253.664 251.591 249.001C271.214 244.338 280.327 227.979 280.327 227.979C280.327 227.979 303.945 225.031 314.935 211.266C323.897 200.041 324.164 182.395 324.164 182.395C324.164 182.395 339.693 171.948 343.285 156.512C346.876 141.076 338.348 122.492 338.348 122.492C338.348 122.492 346.197 102.984 340.65 86.0945Z" fill="#1E1E1E"/>
<path d="M179.545 136.209L227.728 85.6458L270.127 133.61L262.777 138.127L298.536 175.857L289.335 179.067L327.979 214.674L320.63 219.191L350.837 253L282.47 224.139L291.398 219.35L246.764 196.153L255.692 191.364L215.032 172.36L222.559 167.228L179.545 136.209Z" fill="#1E1E1E"/>
</svg>
