<svg width="254" height="144" viewBox="0 0 254 144" fill="none" xmlns="http://www.w3.org/2000/svg">
<g clip-path="url(#clip0_656_11)">
<path d="M0 36.6912V27.8214H40.7711H81.6429V36.6912L74.2346 39.1103V89.9101L81.6429 93.1355V102.005H45.3571V93.1355L53.2695 89.9101V41.4286H40.7711H28.3733V89.9101L36.2857 93.1355V102.005H0V93.1355L7.40831 89.9101V39.1103L0 36.6912Z" fill="#0C2645"/>
<path d="M254 36.6912V27.8214H225.627L208.643 61.8393L191.659 27.8214H163.286V36.6912L170.694 39.1103V89.9101L163.286 93.1355V102.005H199.571V93.1355L191.659 89.9101V58.7148L208.643 92.7327L225.627 58.7148V89.9101L217.714 93.1355V102.005H254V93.1355L246.592 89.9101V39.1103L254 36.6912Z" fill="#0C2645"/>
<path fill-rule="evenodd" clip-rule="evenodd" d="M187.027 58.8037C186.545 50.1334 180.008 44.2848 180.008 44.2848C180.008 44.2848 182.326 36.7012 178.402 30.2931C174.477 23.885 167.621 22.6097 167.621 22.6097C167.621 22.6097 165.074 14.0542 159.065 10.2469C153.055 6.43966 143.582 7.38053 143.582 7.38053C143.582 7.38053 139.935 1.37137 131.195 0.614688C122.456 -0.141997 116.447 3.50534 116.447 3.50534L124.499 21.6943L124.048 21.9718C128.125 21.7797 132.3 22.2052 136.453 23.3181C158.071 29.1106 170.9 51.3312 165.108 72.9492C159.315 94.5672 137.095 107.396 115.477 101.604C93.8588 95.8112 81.0297 73.5906 86.8222 51.9726C87.7297 48.5859 89.0404 45.4148 90.6888 42.4973L90.4608 42.6376L81.6429 27.8214C81.6429 27.8214 71.1062 30.2188 68.2115 37.2484C65.3167 44.278 67.8454 53.0064 67.8454 53.0064C67.8454 53.0064 62.8222 58.2458 63.2357 66.9294C63.6493 75.6131 70.6681 81.4254 70.6681 81.4254C70.6681 81.4254 69.0858 90.2104 72.7102 95.8069C76.3345 101.403 84.3168 103.444 84.3168 103.444C84.3168 103.444 86.4045 111.197 93.2629 115.371C100.121 119.546 109.984 118.169 109.984 118.169C109.984 118.169 114.564 124.126 124.412 124.407C134.26 124.688 140.628 118.122 140.628 118.122C140.628 118.122 152.144 119.717 159.07 114.611C164.718 110.448 167.074 102.156 167.074 102.156C167.074 102.156 175.722 99.1902 179.368 92.3612C183.014 85.5321 181.34 75.6857 181.34 75.6857C181.34 75.6857 187.51 67.4739 187.027 58.8037Z" fill="#0C2645"/>
<path d="M98.9844 53.816L133.325 32.8705L149.761 65.8723L145 67.2896L159.268 93.6082L153.671 94.0228L169.861 119.591L165.099 121.008L176.864 144.318L143.134 118.072L148.814 116.739L127.443 97.1821L133.123 95.8489L113.337 79.2162L118.289 77.4832L98.9844 53.816Z" fill="#0C2645"/>
</g>
<defs>
<clipPath id="clip0_656_11">
<rect width="254" height="144" fill="white"/>
</clipPath>
</defs>
</svg>
